<?xml version="1.0" encoding="utf-8"?>
<!-- Generator: Adobe Illustrator 25.1.0, SVG Export Plug-In . SVG Version: 6.00 Build 0)  -->
<svg version="1.1" id="Layer_1" xmlns="http://www.w3.org/2000/svg" xmlns:xlink="http://www.w3.org/1999/xlink" x="0px" y="0px"
	 viewBox="0 0 326.63 110.65" style="enable-background:new 0 0 326.63 110.65;" xml:space="preserve">
<style type="text/css">
	.st0{fill:#20C4F4;}
	.st1{fill:#FFFFFF;}
</style>
<g>
	<g>
		<circle class="st0" cx="69.98" cy="36.04" r="17.26"/>
		<circle class="st1" cx="101.51" cy="74.61" r="17.26"/>
		<path class="st1" d="M71.47,74.66l12.23-12.23c-3.12-3.14-7.45-5.08-12.23-5.08c-9.53,0-17.26,7.73-17.26,17.26
			c0,9.53,7.73,17.26,17.26,17.26c4.75,0,9.06-1.92,12.18-5.03L71.47,74.66z"/>
		<polygon class="st1" points="18.02,20.51 36.11,51.89 54.21,20.51 		"/>
	</g>
	<g>
		<g>
			<path class="st1" d="M97.94,27.81h5.8v17.21h-5.8V27.81z"/>
			<path class="st1" d="M110.15,32.3h-5.04v-4.5h15.88v4.5h-5.04v12.71h-5.8V32.3z"/>
			<path class="st1" d="M120.84,34.17h7.38v4.18h-7.38V34.17z"/>
			<path class="st1" d="M138.26,39.31l-1.3,1.45v4.25h-5.7V27.81h5.7v6.25l5.65-6.25h6.32l-6.88,7.57l7.23,9.64h-6.71L138.26,39.31z
				"/>
			<path class="st1" d="M153.18,44.25c-1.48-0.77-2.63-1.84-3.47-3.21c-0.84-1.37-1.25-2.91-1.25-4.63c0-1.72,0.42-3.27,1.25-4.63
				c0.84-1.37,1.99-2.44,3.47-3.21c1.47-0.77,3.14-1.16,4.99-1.16s3.52,0.39,4.99,1.16c1.47,0.77,2.63,1.84,3.47,3.21
				c0.84,1.37,1.25,2.91,1.25,4.63c0,1.72-0.42,3.27-1.25,4.63c-0.84,1.37-1.99,2.44-3.47,3.21c-1.48,0.77-3.14,1.16-4.99,1.16
				S154.66,45.02,153.18,44.25z M160.13,40.18c0.58-0.35,1.04-0.85,1.39-1.5c0.34-0.65,0.52-1.41,0.52-2.27
				c0-0.87-0.17-1.63-0.52-2.27c-0.34-0.65-0.81-1.15-1.39-1.5c-0.58-0.35-1.23-0.53-1.96-0.53c-0.72,0-1.37,0.18-1.95,0.53
				c-0.58,0.35-1.04,0.85-1.39,1.5c-0.34,0.65-0.52,1.41-0.52,2.27c0,0.87,0.17,1.63,0.52,2.27c0.34,0.65,0.81,1.15,1.39,1.5
				c0.58,0.35,1.23,0.53,1.95,0.53C158.89,40.71,159.55,40.54,160.13,40.18z"/>
			<path class="st1" d="M173.94,44.25c-1.48-0.77-2.63-1.84-3.47-3.21c-0.84-1.37-1.25-2.91-1.25-4.63c0-1.72,0.42-3.27,1.25-4.63
				c0.84-1.37,1.99-2.44,3.47-3.21c1.47-0.77,3.14-1.16,4.99-1.16s3.52,0.39,4.99,1.16c1.47,0.77,2.63,1.84,3.47,3.21
				c0.84,1.37,1.25,2.91,1.25,4.63c0,1.72-0.42,3.27-1.25,4.63c-0.84,1.37-1.99,2.44-3.47,3.21c-1.48,0.77-3.14,1.16-4.99,1.16
				S175.42,45.02,173.94,44.25z M180.89,40.18c0.58-0.35,1.04-0.85,1.39-1.5c0.34-0.65,0.52-1.41,0.52-2.27
				c0-0.87-0.17-1.63-0.52-2.27c-0.34-0.65-0.81-1.15-1.39-1.5c-0.58-0.35-1.23-0.53-1.96-0.53c-0.72,0-1.37,0.18-1.95,0.53
				c-0.58,0.35-1.04,0.85-1.39,1.5c-0.34,0.65-0.52,1.41-0.52,2.27c0,0.87,0.17,1.63,0.52,2.27c0.34,0.65,0.81,1.15,1.39,1.5
				c0.58,0.35,1.23,0.53,1.95,0.53C179.66,40.71,180.31,40.54,180.89,40.18z"/>
			<path class="st1" d="M190.82,27.81h5.8v12.71h7.77v4.5h-13.57V27.81z"/>
		</g>
	</g>
	<g>
		<path class="st1" d="M128.56,68.63h-2.17v-1.59h6.34v1.59h-2.16v5.49h-2V68.63z"/>
		<path class="st1" d="M138.36,72.75h-2.99l-0.56,1.37h-2.04l3.12-7.07h1.97l3.13,7.07h-2.08L138.36,72.75z M137.77,71.27
			l-0.91-2.26l-0.91,2.26H137.77z"/>
		<path class="st1" d="M145.16,72.24h-1.09v1.88h-2v-7.07h3.23c0.64,0,1.2,0.11,1.67,0.32c0.47,0.21,0.83,0.52,1.09,0.91
			c0.26,0.39,0.38,0.86,0.38,1.39c0,0.51-0.12,0.96-0.36,1.34c-0.24,0.38-0.58,0.68-1.03,0.89l1.53,2.22h-2.14L145.16,72.24z
			 M146.11,68.9c-0.21-0.18-0.52-0.27-0.93-0.27h-1.11v2.07h1.11c0.41,0,0.72-0.09,0.93-0.27c0.21-0.18,0.31-0.43,0.31-0.76
			S146.32,69.08,146.11,68.9z"/>
		<path class="st1" d="M151.45,68.63h-2.17v-1.59h6.34v1.59h-2.16v5.49h-2V68.63z"/>
		<path class="st1" d="M157.57,73.4c-0.58-0.57-0.87-1.38-0.87-2.44v-3.92h2v3.86c0,1.13,0.45,1.7,1.34,1.7
			c0.89,0,1.33-0.57,1.33-1.7v-3.86h1.97v3.92c0,1.05-0.29,1.86-0.87,2.44c-0.58,0.57-1.4,0.86-2.45,0.86S158.16,73.98,157.57,73.4z
			"/>
		<path class="st1" d="M171.75,72.24h-1.09v1.88h-2v-7.07h3.23c0.64,0,1.2,0.11,1.67,0.32c0.47,0.21,0.83,0.52,1.09,0.91
			c0.26,0.39,0.38,0.86,0.38,1.39c0,0.51-0.12,0.96-0.36,1.34c-0.24,0.38-0.58,0.68-1.03,0.89l1.53,2.22h-2.14L171.75,72.24z
			 M172.7,68.9c-0.21-0.18-0.52-0.27-0.93-0.27h-1.11v2.07h1.11c0.41,0,0.72-0.09,0.93-0.27c0.21-0.18,0.31-0.43,0.31-0.76
			S172.9,69.08,172.7,68.9z"/>
		<path class="st1" d="M181.37,72.75h-2.99l-0.56,1.37h-2.04l3.12-7.07h1.97l3.13,7.07h-2.08L181.37,72.75z M180.79,71.27
			l-0.91-2.26l-0.91,2.26H180.79z"/>
		<path class="st1" d="M187.81,71.55l-0.75,0.8v1.77h-1.98v-7.07h1.98v2.94l2.74-2.94h2.2l-2.89,3.13l3.04,3.94h-2.32L187.81,71.55z
			"/>
		<path class="st1" d="M198.87,72.58v1.55h-5.68v-7.07h5.55v1.55h-3.57v1.19h3.14v1.5h-3.14v1.29H198.87z"/>
		<path class="st1" d="M207.21,67.05v7.07h-1.65l-3.12-3.77v3.77h-1.96v-7.07h1.65l3.12,3.77v-3.77H207.21z"/>
		<path class="st1" d="M209.13,67.05h3.34c0.77,0,1.46,0.14,2.06,0.43c0.6,0.29,1.06,0.7,1.39,1.23c0.33,0.53,0.5,1.16,0.5,1.87
			s-0.17,1.34-0.5,1.87c-0.33,0.53-0.79,0.94-1.39,1.23s-1.29,0.43-2.06,0.43h-3.34V67.05z M212.4,72.52c0.61,0,1.09-0.17,1.46-0.52
			c0.37-0.34,0.55-0.82,0.55-1.42s-0.18-1.08-0.55-1.42c-0.37-0.34-0.85-0.52-1.46-0.52h-1.26v3.88H212.4z"/>
		<path class="st1" d="M218.8,73.4c-0.58-0.57-0.87-1.38-0.87-2.44v-3.92h2v3.86c0,1.13,0.45,1.7,1.34,1.7
			c0.89,0,1.33-0.57,1.33-1.7v-3.86h1.97v3.92c0,1.05-0.29,1.86-0.87,2.44c-0.58,0.57-1.4,0.86-2.45,0.86S219.38,73.98,218.8,73.4z"
			/>
		<path class="st1" d="M227.25,74.05c-0.54-0.14-0.98-0.33-1.31-0.57l0.66-1.48c0.32,0.21,0.68,0.38,1.1,0.51
			c0.42,0.13,0.83,0.19,1.23,0.19c0.77,0,1.15-0.19,1.15-0.58c0-0.2-0.11-0.35-0.33-0.45c-0.22-0.1-0.57-0.2-1.06-0.31
			c-0.53-0.11-0.98-0.24-1.33-0.37c-0.36-0.13-0.66-0.34-0.92-0.63c-0.26-0.29-0.38-0.68-0.38-1.17c0-0.43,0.12-0.82,0.35-1.17
			c0.24-0.35,0.59-0.62,1.06-0.82s1.04-0.3,1.72-0.3c0.46,0,0.92,0.05,1.37,0.16c0.45,0.1,0.85,0.26,1.19,0.46l-0.62,1.49
			c-0.67-0.36-1.33-0.55-1.96-0.55c-0.4,0-0.69,0.06-0.87,0.18c-0.18,0.12-0.27,0.27-0.27,0.46s0.11,0.33,0.32,0.42
			c0.22,0.09,0.56,0.19,1.04,0.29c0.54,0.11,0.99,0.24,1.34,0.37s0.66,0.34,0.92,0.63c0.26,0.29,0.39,0.68,0.39,1.17
			c0,0.42-0.12,0.81-0.35,1.15c-0.24,0.34-0.59,0.62-1.06,0.82c-0.47,0.21-1.04,0.31-1.72,0.31
			C228.35,74.26,227.79,74.19,227.25,74.05z"/>
		<path class="st1" d="M233.48,67.05h2v5.49h3.38v1.59h-5.38V67.05z"/>
		<path class="st1" d="M240.14,67.05h2v7.07h-2V67.05z"/>
		<path class="st1" d="M246.8,71.55l-0.75,0.8v1.77h-1.98v-7.07h1.98v2.94l2.74-2.94h2.2l-2.89,3.13l3.04,3.94h-2.32L246.8,71.55z"
			/>
		<path class="st1" d="M258.35,71.55l-0.75,0.8v1.77h-1.98v-7.07h1.98v2.94l2.74-2.94h2.2l-2.89,3.13l3.04,3.94h-2.32L258.35,71.55z
			"/>
		<path class="st1" d="M265.03,73.79c-0.6-0.32-1.06-0.75-1.4-1.31c-0.34-0.56-0.51-1.19-0.51-1.89s0.17-1.33,0.51-1.89
			c0.34-0.56,0.81-1,1.4-1.31c0.6-0.32,1.27-0.48,2.02-0.48c0.75,0,1.42,0.16,2.02,0.48c0.6,0.32,1.06,0.75,1.4,1.31
			s0.51,1.19,0.51,1.89s-0.17,1.33-0.51,1.89s-0.81,1-1.4,1.31c-0.6,0.32-1.27,0.48-2.02,0.48C266.3,74.26,265.62,74.1,265.03,73.79
			z M268.01,72.35c0.29-0.17,0.52-0.41,0.69-0.71c0.17-0.31,0.25-0.66,0.25-1.06s-0.08-0.75-0.25-1.06
			c-0.17-0.31-0.4-0.54-0.69-0.71c-0.29-0.17-0.61-0.25-0.97-0.25c-0.36,0-0.68,0.08-0.97,0.25c-0.29,0.17-0.52,0.41-0.69,0.71
			c-0.17,0.31-0.25,0.66-0.25,1.06s0.08,0.75,0.25,1.06c0.17,0.31,0.4,0.54,0.69,0.71c0.29,0.17,0.61,0.25,0.97,0.25
			C267.4,72.61,267.72,72.52,268.01,72.35z"/>
		<path class="st1" d="M272.53,67.05h2v5.49h3.38v1.59h-5.38V67.05z"/>
		<path class="st1" d="M279.2,67.05h2v5.49h3.38v1.59h-5.38V67.05z"/>
		<path class="st1" d="M291.55,72.58v1.55h-5.68v-7.07h5.55v1.55h-3.57v1.19h3.14v1.5h-3.14v1.29H291.55z"/>
		<path class="st1" d="M293.16,67.05h3.34c0.77,0,1.46,0.14,2.06,0.43c0.6,0.29,1.06,0.7,1.39,1.23c0.33,0.53,0.5,1.16,0.5,1.87
			s-0.17,1.34-0.5,1.87c-0.33,0.53-0.79,0.94-1.39,1.23s-1.29,0.43-2.06,0.43h-3.34V67.05z M296.43,72.52
			c0.61,0,1.09-0.17,1.46-0.52c0.37-0.34,0.55-0.82,0.55-1.42s-0.18-1.08-0.55-1.42c-0.37-0.34-0.85-0.52-1.46-0.52h-1.26v3.88
			H296.43z"/>
		<path class="st1" d="M307.94,72.53v1.59h-6.34v-1.25l3.57-4.23h-3.48v-1.59h6.09v1.25l-3.57,4.23H307.94z M306.92,64.94
			l-1.31,1.54h-1.66l-1.31-1.54h1.27l0.87,0.77l0.87-0.77H306.92z"/>
		<path class="st1" d="M128.56,80.76h-2.17v-1.59h6.34v1.59h-2.16v5.49h-2V80.76z"/>
		<path class="st1" d="M138.36,84.87h-2.99l-0.56,1.37h-2.04l3.12-7.07h1.97l3.13,7.07h-2.08L138.36,84.87z M137.77,83.4l-0.91-2.26
			l-0.91,2.26H137.77z"/>
		<path class="st1" d="M145.16,84.37h-1.09v1.88h-2v-7.07h3.23c0.64,0,1.2,0.11,1.67,0.32c0.47,0.21,0.83,0.52,1.09,0.91
			c0.26,0.39,0.38,0.86,0.38,1.39c0,0.51-0.12,0.96-0.36,1.34c-0.24,0.38-0.58,0.68-1.03,0.89l1.53,2.22h-2.14L145.16,84.37z
			 M146.11,81.02c-0.21-0.18-0.52-0.27-0.93-0.27h-1.11v2.07h1.11c0.41,0,0.72-0.09,0.93-0.27c0.21-0.18,0.31-0.43,0.31-0.76
			S146.32,81.2,146.11,81.02z"/>
		<path class="st1" d="M151.45,80.76h-2.17v-1.59h6.34v1.59h-2.16v5.49h-2V80.76z"/>
		<path class="st1" d="M157.57,85.53c-0.58-0.57-0.87-1.38-0.87-2.44v-3.92h2v3.86c0,1.13,0.45,1.7,1.34,1.7
			c0.89,0,1.33-0.57,1.33-1.7v-3.86h1.97v3.92c0,1.05-0.29,1.86-0.87,2.44c-0.58,0.57-1.4,0.86-2.45,0.86S158.16,86.1,157.57,85.53z
			"/>
		<path class="st1" d="M175.83,79.17l-3.03,7.07h-1.97l-3.02-7.07h2.16l1.92,4.61l1.96-4.61H175.83z"/>
		<path class="st1" d="M178.21,85.91c-0.6-0.32-1.06-0.75-1.4-1.31c-0.34-0.56-0.51-1.19-0.51-1.89s0.17-1.33,0.51-1.89
			c0.34-0.56,0.81-1,1.4-1.31c0.6-0.32,1.27-0.48,2.02-0.48c0.75,0,1.42,0.16,2.02,0.48c0.6,0.32,1.06,0.75,1.4,1.31
			s0.51,1.19,0.51,1.89s-0.17,1.33-0.51,1.89s-0.81,1-1.4,1.31c-0.6,0.32-1.27,0.48-2.02,0.48
			C179.48,86.39,178.8,86.23,178.21,85.91z M181.19,84.48c0.29-0.17,0.52-0.41,0.69-0.71c0.17-0.31,0.25-0.66,0.25-1.06
			s-0.08-0.75-0.25-1.06c-0.17-0.31-0.4-0.54-0.69-0.71c-0.29-0.17-0.61-0.25-0.97-0.25c-0.36,0-0.68,0.08-0.97,0.25
			c-0.29,0.17-0.52,0.41-0.69,0.71c-0.17,0.31-0.25,0.66-0.25,1.06s0.08,0.75,0.25,1.06c0.17,0.31,0.4,0.54,0.69,0.71
			c0.29,0.17,0.61,0.25,0.97,0.25C180.58,84.73,180.9,84.65,181.19,84.48z"/>
		<path class="st1" d="M187.24,85.92c-0.59-0.31-1.05-0.75-1.39-1.31c-0.34-0.56-0.5-1.19-0.5-1.9c0-0.71,0.17-1.34,0.5-1.9
			c0.34-0.56,0.8-1,1.39-1.31c0.59-0.31,1.25-0.47,2-0.47c0.65,0,1.23,0.11,1.75,0.34c0.52,0.23,0.95,0.56,1.29,0.99l-1.27,1.15
			c-0.46-0.55-1.01-0.83-1.67-0.83c-0.38,0-0.73,0.08-1.03,0.25c-0.3,0.17-0.53,0.41-0.7,0.71c-0.17,0.31-0.25,0.66-0.25,1.06
			s0.08,0.75,0.25,1.06c0.17,0.31,0.4,0.54,0.7,0.71c0.3,0.17,0.64,0.25,1.03,0.25c0.65,0,1.21-0.28,1.67-0.83l1.27,1.15
			c-0.34,0.43-0.77,0.76-1.29,0.99c-0.52,0.23-1.1,0.34-1.75,0.34C188.5,86.39,187.83,86.23,187.24,85.92z"/>
		<path class="st1" d="M198.29,84.87h-2.99l-0.56,1.37h-2.04l3.12-7.07h1.97l3.13,7.07h-2.08L198.29,84.87z M197.7,83.4l-0.91-2.26
			l-0.91,2.26H197.7z"/>
		<path class="st1" d="M203.15,80.76h-2.17v-1.59h6.34v1.59h-2.16v5.49h-2V80.76z"/>
		<path class="st1" d="M208.57,79.17h2v7.07h-2V79.17z"/>
		<path class="st1" d="M214.05,85.91c-0.6-0.32-1.06-0.75-1.4-1.31c-0.34-0.56-0.51-1.19-0.51-1.89s0.17-1.33,0.51-1.89
			c0.34-0.56,0.81-1,1.4-1.31c0.6-0.32,1.27-0.48,2.02-0.48c0.75,0,1.42,0.16,2.02,0.48c0.6,0.32,1.06,0.75,1.4,1.31
			s0.51,1.19,0.51,1.89s-0.17,1.33-0.51,1.89s-0.81,1-1.4,1.31c-0.6,0.32-1.27,0.48-2.02,0.48
			C215.32,86.39,214.64,86.23,214.05,85.91z M217.04,84.48c0.29-0.17,0.52-0.41,0.69-0.71c0.17-0.31,0.25-0.66,0.25-1.06
			s-0.08-0.75-0.25-1.06c-0.17-0.31-0.4-0.54-0.69-0.71c-0.29-0.17-0.61-0.25-0.97-0.25c-0.36,0-0.68,0.08-0.97,0.25
			c-0.29,0.17-0.52,0.41-0.69,0.71c-0.17,0.31-0.25,0.66-0.25,1.06s0.08,0.75,0.25,1.06c0.17,0.31,0.4,0.54,0.69,0.71
			c0.29,0.17,0.61,0.25,0.97,0.25C216.42,84.73,216.75,84.65,217.04,84.48z"/>
		<path class="st1" d="M228.28,79.17v7.07h-1.65l-3.12-3.77v3.77h-1.96v-7.07h1.65l3.12,3.77v-3.77H228.28z"/>
		<path class="st1" d="M234.94,84.87h-2.99l-0.56,1.37h-2.04l3.12-7.07h1.97l3.13,7.07h-2.08L234.94,84.87z M234.35,83.4l-0.91-2.26
			l-0.91,2.26H234.35z"/>
		<path class="st1" d="M238.65,79.17h2v5.49h3.38v1.59h-5.38V79.17z"/>
		<path class="st1" d="M250.29,85.92c-0.59-0.31-1.05-0.75-1.39-1.31c-0.34-0.56-0.5-1.19-0.5-1.9c0-0.71,0.17-1.34,0.5-1.9
			c0.34-0.56,0.8-1,1.39-1.31c0.59-0.31,1.25-0.47,2-0.47c0.65,0,1.23,0.11,1.75,0.34c0.52,0.23,0.95,0.56,1.29,0.99l-1.27,1.15
			c-0.46-0.55-1.01-0.83-1.67-0.83c-0.38,0-0.73,0.08-1.03,0.25c-0.3,0.17-0.53,0.41-0.7,0.71c-0.17,0.31-0.25,0.66-0.25,1.06
			s0.08,0.75,0.25,1.06c0.17,0.31,0.4,0.54,0.7,0.71c0.3,0.17,0.64,0.25,1.03,0.25c0.65,0,1.21-0.28,1.67-0.83l1.27,1.15
			c-0.34,0.43-0.77,0.76-1.29,0.99c-0.52,0.23-1.1,0.34-1.75,0.34C251.55,86.39,250.88,86.23,250.29,85.92z"/>
		<path class="st1" d="M258.13,85.91c-0.6-0.32-1.06-0.75-1.4-1.31c-0.34-0.56-0.51-1.19-0.51-1.89s0.17-1.33,0.51-1.89
			c0.34-0.56,0.81-1,1.4-1.31c0.6-0.32,1.27-0.48,2.02-0.48c0.75,0,1.42,0.16,2.02,0.48c0.6,0.32,1.06,0.75,1.4,1.31
			s0.51,1.19,0.51,1.89s-0.17,1.33-0.51,1.89s-0.81,1-1.4,1.31c-0.6,0.32-1.27,0.48-2.02,0.48
			C259.39,86.39,258.72,86.23,258.13,85.91z M261.11,84.48c0.29-0.17,0.52-0.41,0.69-0.71c0.17-0.31,0.25-0.66,0.25-1.06
			s-0.08-0.75-0.25-1.06c-0.17-0.31-0.4-0.54-0.69-0.71c-0.29-0.17-0.61-0.25-0.97-0.25c-0.36,0-0.68,0.08-0.97,0.25
			c-0.29,0.17-0.52,0.41-0.69,0.71c-0.17,0.31-0.25,0.66-0.25,1.06s0.08,0.75,0.25,1.06c0.17,0.31,0.4,0.54,0.69,0.71
			c0.29,0.17,0.61,0.25,0.97,0.25C260.5,84.73,260.82,84.65,261.11,84.48z"/>
		<path class="st1" d="M265.63,79.17h2v5.49H271v1.59h-5.38V79.17z"/>
		<path class="st1" d="M272.3,79.17h2v5.49h3.38v1.59h-5.38V79.17z"/>
		<path class="st1" d="M284.65,84.7v1.55h-5.68v-7.07h5.55v1.55h-3.57v1.19h3.14v1.5h-3.14v1.29H284.65z"/>
		<path class="st1" d="M290.99,82.56h1.77v2.93c-0.4,0.29-0.87,0.51-1.39,0.67s-1.05,0.23-1.58,0.23c-0.74,0-1.41-0.16-2-0.47
			c-0.59-0.31-1.06-0.75-1.39-1.31c-0.34-0.56-0.5-1.19-0.5-1.9c0-0.71,0.17-1.34,0.5-1.9c0.34-0.56,0.81-1,1.4-1.31
			c0.6-0.31,1.28-0.47,2.03-0.47c0.66,0,1.25,0.11,1.78,0.33s0.96,0.54,1.31,0.96l-1.27,1.15c-0.48-0.53-1.05-0.79-1.72-0.79
			c-0.61,0-1.1,0.18-1.47,0.55c-0.37,0.37-0.56,0.86-0.56,1.47c0,0.39,0.08,0.74,0.25,1.05s0.4,0.55,0.71,0.72
			c0.3,0.17,0.65,0.26,1.04,0.26c0.38,0,0.74-0.08,1.08-0.23V82.56z"/>
		<path class="st1" d="M300.22,84.7v1.55h-5.68v-7.07h5.55v1.55h-3.57v1.19h3.14v1.5h-3.14v1.29H300.22z"/>
	</g>
</g>
</svg>
